<?xml version="1.0" encoding="UTF-8" standalone="no"?>
<!DOCTYPE svg PUBLIC "-//W3C//DTD SVG 1.0//EN" "http://www.w3.org/TR/2001/PR-SVG-20010719/DTD/svg10.dtd">
<svg width="41cm" height="26cm" viewBox="0 0 802 512" xmlns="http://www.w3.org/2000/svg" xmlns:xlink="http://www.w3.org/1999/xlink">
  <g>
    <rect style="fill: #ffffff" x="1.38903" y="1.23866" width="799.453" height="509.604"/>
    <rect style="fill: none; fill-opacity:0; stroke-width: 2; stroke: #ffffff" x="1.38903" y="1.23866" width="799.453" height="509.604"/>
  </g>
  <g>
    <rect style="fill: #ffe2da" x="12.3717" y="30.2606" width="774.878" height="467.239"/>
    <rect style="fill: none; fill-opacity:0; stroke-width: 2; stroke: #000000" x="12.3717" y="30.2606" width="774.878" height="467.239"/>
    <rect style="fill: #ffe2da" x="12.3717" y="10.2606" width="40" height="20"/>
    <rect style="fill: none; fill-opacity:0; stroke-width: 2; stroke: #000000" x="12.3717" y="10.2606" width="40" height="20"/>
    <text font-size="12.7998" style="fill: #000000;text-anchor:start;font-family:monospace;font-style:normal;font-weight:normal" x="14.3717" y="24.2606">Game</text>
  </g>
  <g>
    <polyline style="fill: none; fill-opacity:0; stroke-width: 2; stroke: #000000" points="147.825,148.261 177.825,148.261 177.825,44.62 290.424,44.62 290.424,62.7051 "/>
    <polyline style="fill: none; fill-opacity:0; stroke-width: 2; stroke: #000000" points="285.424,54.9411 290.424,64.9411 295.424,54.9411 "/>
  </g>
  <g>
    <polyline style="fill: none; fill-opacity:0; stroke-width: 2; stroke: #000000" points="288.612,458.642 288.612,478.734 94.35,478.734 94.35,170.734 "/>
    <polyline style="fill: none; fill-opacity:0; stroke-width: 2; stroke: #000000" points="99.35,178.497 94.35,168.497 89.35,178.497 "/>
  </g>
  <g>
    <g>
      <rect style="fill: #90ee90" x="423.852" y="125.138" width="344.575" height="351"/>
      <rect style="fill: none; fill-opacity:0; stroke-width: 2; stroke: #000000" x="423.852" y="125.138" width="344.575" height="351"/>
      <rect style="fill: #90ee90" x="423.852" y="105.138" width="57.9" height="20"/>
      <rect style="fill: none; fill-opacity:0; stroke-width: 2; stroke: #000000" x="423.852" y="105.138" width="57.9" height="20"/>
      <text font-size="12.7998" style="fill: #000000;text-anchor:start;font-family:monospace;font-style:normal;font-weight:normal" x="425.852" y="119.138">Playing</text>
    </g>
    <g>
      <rect style="fill: #fdfdc5" x="518.268" y="148.012" width="104.15" height="36" rx="10" ry="10"/>
      <rect style="fill: none; fill-opacity:0; stroke-width: 2; stroke: #000000" x="518.268" y="148.012" width="104.15" height="36" rx="10" ry="10"/>
      <text font-size="12.8" style="fill: #000000;text-anchor:middle;font-family:sans-serif;font-style:normal;font-weight:normal" x="570.343" y="170.812">
        <tspan x="570.343" y="170.812">Initialise round</tspan>
      </text>
    </g>
    <g>
      <rect style="fill: #9ccfff" x="553.102" y="263.426" width="80.25" height="36" rx="10" ry="10"/>
      <rect style="fill: none; fill-opacity:0; stroke-width: 2; stroke: #000000" x="553.102" y="263.426" width="80.25" height="36" rx="10" ry="10"/>
      <text font-size="12.8" style="fill: #000000;text-anchor:middle;font-family:sans-serif;font-style:normal;font-weight:normal" x="593.227" y="286.226">
        <tspan x="593.227" y="286.226">Take turns</tspan>
      </text>
    </g>
    <g>
      <rect style="fill: #fdfdc5" x="515.676" y="386.443" width="98.8" height="36" rx="10" ry="10"/>
      <rect style="fill: none; fill-opacity:0; stroke-width: 2; stroke: #000000" x="515.676" y="386.443" width="98.8" height="36" rx="10" ry="10"/>
      <text font-size="12.8" style="fill: #000000;text-anchor:middle;font-family:sans-serif;font-style:normal;font-weight:normal" x="565.076" y="409.243">
        <tspan x="565.076" y="409.243">Finalise round</tspan>
      </text>
    </g>
    <g>
      <rect style="fill: #ffd380" x="636.188" y="344.696" width="80" height="36" rx="10" ry="10"/>
      <rect style="fill: none; fill-opacity:0; stroke-width: 2; stroke: #000000" x="636.188" y="344.696" width="80" height="36" rx="10" ry="10"/>
      <text font-size="12.8" style="fill: #000000;text-anchor:middle;font-family:sans-serif;font-style:normal;font-weight:normal" x="676.188" y="367.496">
        <tspan x="676.188" y="367.496">End game</tspan>
      </text>
    </g>
    <g>
      <rect style="fill: #9ccfff" x="441.734" y="216.91" width="80" height="36" rx="10" ry="10"/>
      <rect style="fill: none; fill-opacity:0; stroke-width: 2; stroke: #000000" x="441.734" y="216.91" width="80" height="36" rx="10" ry="10"/>
      <text font-size="12.8" style="fill: #000000;text-anchor:middle;font-family:sans-serif;font-style:normal;font-weight:normal" x="481.734" y="239.71">
        <tspan x="481.734" y="239.71">Paused</tspan>
      </text>
    </g>
    <g>
      <polyline style="fill: none; fill-opacity:0; stroke-width: 2; stroke: #000000" points="570.343,184.012 570.343,220.95 593.227,220.95 593.227,258.954 "/>
      <polyline style="fill: none; fill-opacity:0; stroke-width: 2; stroke: #000000" points="588.227,251.19 593.227,261.19 598.227,251.19 "/>
    </g>
    <g>
      <polyline style="fill: none; fill-opacity:0; stroke-width: 2; stroke: #000000" points="633.352,281.426 663.352,281.426 663.352,213.134 593.227,213.134 593.227,258.954 "/>
      <polyline style="fill: none; fill-opacity:0; stroke-width: 2; stroke: #000000" points="588.227,251.19 593.227,261.19 598.227,251.19 "/>
    </g>
    <g>
      <polyline style="fill: none; fill-opacity:0; stroke-width: 2; stroke: #000000" points="593.227,299.426 593.227,322.061 676.188,322.061 676.188,340.224 "/>
      <polyline style="fill: none; fill-opacity:0; stroke-width: 2; stroke: #000000" points="671.188,332.46 676.188,342.46 681.188,332.46 "/>
    </g>
    <g>
      <polyline style="fill: none; fill-opacity:0; stroke-width: 2; stroke: #000000" points="676.188,380.696 676.188,404.443 618.948,404.443 "/>
      <polyline style="fill: none; fill-opacity:0; stroke-width: 2; stroke: #000000" points="626.712,399.443 616.712,404.443 626.712,409.443 "/>
    </g>
    <g>
      <polyline style="fill: none; fill-opacity:0; stroke-width: 2; stroke: #000000" points="593.227,299.426 593.227,342.935 565.076,342.935 565.076,381.971 "/>
      <polyline style="fill: none; fill-opacity:0; stroke-width: 2; stroke: #000000" points="560.076,374.207 565.076,384.207 570.076,374.207 "/>
    </g>
    <g>
      <polyline style="fill: none; fill-opacity:0; stroke-width: 2; stroke: #000000" points="565.076,422.443 565.076,449.188 741.624,449.188 741.624,166.012 626.89,166.012 "/>
      <polyline style="fill: none; fill-opacity:0; stroke-width: 2; stroke: #000000" points="634.654,161.012 624.654,166.012 634.654,171.012 "/>
    </g>
    <g>
      <polyline style="fill: none; fill-opacity:0; stroke-width: 2; stroke: #000000" points="481.734,252.91 481.734,281.426 548.63,281.426 "/>
      <polyline style="fill: none; fill-opacity:0; stroke-width: 2; stroke: #000000" points="540.866,286.426 550.866,281.426 540.866,276.426 "/>
    </g>
    <g>
      <polyline style="fill: none; fill-opacity:0; stroke-width: 2; stroke: #000000" points="553.102,281.426 481.734,281.426 481.734,257.382 "/>
      <polyline style="fill: none; fill-opacity:0; stroke-width: 2; stroke: #000000" points="486.734,265.146 481.734,255.146 476.734,265.146 "/>
    </g>
  </g>
  <g>
    <g>
      <rect style="fill: #fdfdc5" x="250.424" y="67.1772" width="80" height="36" rx="10" ry="10"/>
      <rect style="fill: none; fill-opacity:0; stroke-width: 2; stroke: #000000" x="250.424" y="67.1772" width="80" height="36" rx="10" ry="10"/>
      <text font-size="12.8" style="fill: #000000;text-anchor:middle;font-family:sans-serif;font-style:normal;font-weight:normal" x="290.424" y="89.9772">
        <tspan x="290.424" y="89.9772">Initialised</tspan>
      </text>
    </g>
    <g>
      <rect style="fill: #90ee90" x="248.224" y="269.526" width="80" height="36" rx="10" ry="10"/>
      <rect style="fill: none; fill-opacity:0; stroke-width: 2; stroke: #000000" x="248.224" y="269.526" width="80" height="36" rx="10" ry="10"/>
      <text font-size="12.8" style="fill: #000000;text-anchor:middle;font-family:sans-serif;font-style:normal;font-weight:normal" x="288.224" y="292.326">
        <tspan x="288.224" y="292.326">Started</tspan>
      </text>
    </g>
    <g>
      <rect style="fill: #ffd380" x="248.37" y="350.202" width="80" height="36" rx="10" ry="10"/>
      <rect style="fill: none; fill-opacity:0; stroke-width: 2; stroke: #000000" x="248.37" y="350.202" width="80" height="36" rx="10" ry="10"/>
      <text font-size="12.8" style="fill: #000000;text-anchor:middle;font-family:sans-serif;font-style:normal;font-weight:normal" x="288.37" y="373.002">
        <tspan x="288.37" y="373.002">Ended</tspan>
      </text>
    </g>
    <g>
      <rect style="fill: #fdfdc5" x="248.612" y="422.642" width="80" height="36" rx="10" ry="10"/>
      <rect style="fill: none; fill-opacity:0; stroke-width: 2; stroke: #000000" x="248.612" y="422.642" width="80" height="36" rx="10" ry="10"/>
      <text font-size="12.8" style="fill: #000000;text-anchor:middle;font-family:sans-serif;font-style:normal;font-weight:normal" x="288.612" y="445.442">
        <tspan x="288.612" y="445.442">Finalised</tspan>
      </text>
    </g>
    <g>
      <rect style="fill: #9ccfff" x="234.018" y="120.576" width="108.45" height="36" rx="10" ry="10"/>
      <rect style="fill: none; fill-opacity:0; stroke-width: 2; stroke: #000000" x="234.018" y="120.576" width="108.45" height="36" rx="10" ry="10"/>
      <text font-size="12.8" style="fill: #000000;text-anchor:middle;font-family:sans-serif;font-style:normal;font-weight:normal" x="288.243" y="143.376">
        <tspan x="288.243" y="143.376">Manage players</tspan>
      </text>
    </g>
    <g>
      <polyline style="fill: none; fill-opacity:0; stroke-width: 2; stroke: #000000" points="330.424,85.1772 372.468,85.1772 372.468,138.576 346.94,138.576 "/>
      <polyline style="fill: none; fill-opacity:0; stroke-width: 2; stroke: #000000" points="354.704,133.576 344.704,138.576 354.704,143.576 "/>
    </g>
    <g>
      <polyline style="fill: none; fill-opacity:0; stroke-width: 2; stroke: #000000" points="288.243,156.576 288.243,213.051 288.224,213.051 288.224,265.054 "/>
      <polyline style="fill: none; fill-opacity:0; stroke-width: 2; stroke: #000000" points="283.224,257.29 288.224,267.29 293.224,257.29 "/>
    </g>
    <g>
      <ellipse style="fill: #ffffff" cx="288.38" cy="207.843" rx="48.325" ry="32.2167"/>
      <ellipse style="fill: none; fill-opacity:0; stroke-width: 1; stroke: #891ecb" cx="288.38" cy="207.843" rx="48.325" ry="32.2167"/>
      <text font-size="9.03111" style="fill: #891ecb;text-anchor:middle;font-family:sans-serif;font-style:normal;font-weight:normal" x="288.38" y="199.96">
        <tspan x="288.38" y="199.96">More than</tspan>
        <tspan x="288.38" y="211.248">two players</tspan>
        <tspan x="288.38" y="222.537">registered</tspan>
      </text>
    </g>
    <g>
      <polyline style="fill: none; fill-opacity:0; stroke-width: 2; stroke: #000000" points="288.37,386.202 288.37,416.202 288.612,416.202 288.612,418.17 "/>
      <polyline style="fill: none; fill-opacity:0; stroke-width: 2; stroke: #000000" points="283.612,410.406 288.612,420.406 293.612,410.406 "/>
    </g>
    <g>
      <polyline style="fill: none; fill-opacity:0; stroke-width: 2; stroke: #000000" points="248.612,440.642 177.149,440.642 177.149,241.964 206.04,241.964 206.04,85.1772 245.952,85.1772 "/>
      <polyline style="fill: none; fill-opacity:0; stroke-width: 2; stroke: #000000" points="238.188,90.1772 248.188,85.1772 238.188,80.1772 "/>
    </g>
    <g>
      <ellipse style="fill: #ffffff" cx="177.05" cy="332.6" rx="34.4333" ry="20"/>
      <ellipse style="fill: none; fill-opacity:0; stroke-width: 1; stroke: #000000" cx="177.05" cy="332.6" rx="34.4333" ry="20"/>
      <text font-size="9.03111" style="fill: #000000;text-anchor:middle;font-family:sans-serif;font-style:normal;font-weight:normal" x="177.05" y="336.006">
        <tspan x="177.05" y="336.006">Rematch</tspan>
      </text>
    </g>
  </g>
  <g>
    <g>
      <g>
        <rect style="fill: #fdfdc5" x="54.2954" y="53.625" width="80" height="36" rx="10" ry="10"/>
        <rect style="fill: none; fill-opacity:0; stroke-width: 2; stroke: #000000" x="54.2954" y="53.625" width="80" height="36" rx="10" ry="10"/>
        <text font-size="12.8" style="fill: #000000;text-anchor:middle;font-family:sans-serif;font-style:normal;font-weight:normal" x="94.2954" y="76.425">
          <tspan x="94.2954" y="76.425">No game</tspan>
        </text>
      </g>
      <g>
        <rect style="fill: #9ccfff" x="40.875" y="130.261" width="106.95" height="36" rx="10" ry="10"/>
        <rect style="fill: none; fill-opacity:0; stroke-width: 2; stroke: #000000" x="40.875" y="130.261" width="106.95" height="36" rx="10" ry="10"/>
        <text font-size="12.8" style="fill: #000000;text-anchor:middle;font-family:sans-serif;font-style:normal;font-weight:normal" x="94.35" y="153.061">
          <tspan x="94.35" y="153.061">Choosing game</tspan>
        </text>
      </g>
      <g>
        <polyline style="fill: none; fill-opacity:0; stroke-width: 2; stroke: #000000" points="94.2954,89.625 94.2954,109.943 94.35,109.943 94.35,125.789 "/>
        <polyline style="fill: none; fill-opacity:0; stroke-width: 2; stroke: #000000" points="89.35,118.025 94.35,128.025 99.35,118.025 "/>
      </g>
    </g>
    <g>
      <ellipse style="fill: #ffffff" cx="94.1647" cy="266.5" rx="32.5" ry="20"/>
      <ellipse style="fill: none; fill-opacity:0; stroke-width: 1; stroke: #000000" cx="94.1647" cy="266.5" rx="32.5" ry="20"/>
      <text font-size="9.03111" style="fill: #000000;text-anchor:middle;font-family:sans-serif;font-style:normal;font-weight:normal" x="94.1647" y="264.261">
        <tspan x="94.1647" y="264.261">New</tspan>
        <tspan x="94.1647" y="275.55">game</tspan>
      </text>
    </g>
  </g>
  <g>
    <polyline style="fill: none; fill-opacity:0; stroke-width: 2; stroke: #000000" points="328.224,287.526 383.25,287.526 383.25,166.012 513.796,166.012 "/>
    <polyline style="fill: none; fill-opacity:0; stroke-width: 2; stroke: #000000" points="506.032,171.012 516.032,166.012 506.032,161.012 "/>
  </g>
  <g>
    <polyline style="fill: none; fill-opacity:0; stroke-width: 2; stroke: #000000" points="515.676,404.443 383.25,404.443 383.25,368.202 332.842,368.202 "/>
    <polyline style="fill: none; fill-opacity:0; stroke-width: 2; stroke: #000000" points="340.606,363.202 330.606,368.202 340.606,373.202 "/>
  </g>
</svg>
